<?xml version="1.0" encoding="UTF-8"?>
<svg id="_图层_1" data-name="图层 1" xmlns="http://www.w3.org/2000/svg" viewBox="0 0 16 16">
  <defs>
    <style>
      .cls-1 {
        fill: #fff;
      }

      .cls-2 {
        fill: #9862d8;
      }

      .cls-3 {
        fill: #342885;
      }

      .cls-4 {
        fill: #d696fa;
      }
    </style>
  </defs>
  <rect class="cls-1" width="16" height="16"/>
  <path class="cls-4" d="M6.38,13.49c.77,0,1.45-.65,1.69-1.6,.79-3.16-4.38-4.43-3.32-8.46,.41-1.54,1.65-2.47,3.27-2.47,1.98,0,3.12,1.31,2.95,3.43l-1.62,.09c.07-1.18-.41-1.91-1.36-1.91-.75,0-1.33,.48-1.5,1.23-.66,3,4.25,4.25,3.41,8.24-.39,1.82-1.86,3.05-3.67,3.05-2.05,0-3.27-1.48-3.21-3.77l1.64-.09c.03,1.38,.66,2.27,1.72,2.27Z"/>
  <path class="cls-2" d="M7.38,13.47c.77,0,1.45-.65,1.69-1.6,.79-3.16-4.38-4.43-3.32-8.46,.41-1.54,1.65-2.47,3.27-2.47,1.98,0,3.12,1.31,2.95,3.43l-1.62,.09c.07-1.18-.41-1.91-1.36-1.91-.75,0-1.33,.48-1.5,1.23-.66,3,4.25,4.25,3.41,8.24-.39,1.82-1.86,3.05-3.67,3.05-2.05,0-3.27-1.48-3.21-3.77l1.64-.09c.03,1.38,.66,2.27,1.72,2.27Z"/>
  <path class="cls-3" d="M8.4,13.49c.77,0,1.45-.65,1.69-1.6,.79-3.16-4.38-4.43-3.32-8.46,.41-1.54,1.65-2.47,3.27-2.47,1.98,0,3.12,1.31,2.95,3.43l-1.62,.09c.07-1.18-.41-1.91-1.36-1.91-.75,0-1.33,.48-1.5,1.23-.66,3,4.25,4.25,3.41,8.24-.39,1.82-1.86,3.05-3.67,3.05-2.05,0-3.27-1.48-3.21-3.77l1.64-.09c.03,1.38,.66,2.27,1.72,2.27Z"/>
</svg>